<?xml version="1.0" encoding="UTF-8" standalone="no"?><svg xmlns="http://www.w3.org/2000/svg" xmlns:xlink="http://www.w3.org/1999/xlink" contentScriptType="application/ecmascript" contentStyleType="text/css" height="144px" preserveAspectRatio="none" style="width:1959px;height:144px;" version="1.1" viewBox="0 0 1959 144" width="1959px" zoomAndPan="magnify"><defs><filter height="300%" id="fn7f3p6" width="300%" x="-1" y="-1"><feGaussianBlur result="blurOut" stdDeviation="2.0"/><feColorMatrix in="blurOut" result="blurOut2" type="matrix" values="0 0 0 0 0 0 0 0 0 0 0 0 0 0 0 0 0 0 .4 0"/><feOffset dx="4.0" dy="4.0" in="blurOut2" result="blurOut3"/><feBlend in="SourceGraphic" in2="blurOut3" mode="normal"/></filter></defs><g><!--entity A0--><rect fill="#FEFECE" filter="url(#fn7f3p6)" height="65.2188" style="stroke: #A80036; stroke-width: 1.5;" width="189" x="94.5" y="70"/><rect fill="#FEFECE" height="10" style="stroke: #A80036; stroke-width: 1.5;" width="15" x="263.5" y="75"/><rect fill="#FEFECE" height="2" style="stroke: #A80036; stroke-width: 1.5;" width="4" x="261.5" y="77"/><rect fill="#FEFECE" height="2" style="stroke: #A80036; stroke-width: 1.5;" width="4" x="261.5" y="81"/><text fill="#000000" font-family="sans-serif" font-size="14" lengthAdjust="spacingAndGlyphs" textLength="149" x="109.5" y="104.5332">SingleThreadCommand</text><text fill="#000000" font-family="sans-serif" font-size="14" lengthAdjust="spacingAndGlyphs" textLength="49" x="109.5" y="122.1426">execute</text><polygon fill="#FBFB77" filter="url(#fn7f3p6)" points="6,8.5,6,34.8516,372,34.8516,372,18.5,362,8.5,6,8.5" style="stroke: #A80036; stroke-width: 1.0;"/><polygon fill="#FBFB77" points="6,8.5,6,34.8516,185,34.8516,189,69.9102,193,34.8516,372,34.8516,372,18.5,362,8.5,6,8.5" style="stroke: #A80036; stroke-width: 1.0;"/><line style="stroke: #A80036; stroke-width: 1.0;" x1="362" x2="362" y1="8.5" y2="18.5"/><line style="stroke: #A80036; stroke-width: 1.0;" x1="372" x2="362" y1="18.5" y2="18.5"/><text fill="#000000" font-family="sans-serif" font-size="13" lengthAdjust="spacingAndGlyphs" textLength="345" x="12" y="26.9951">com.github.adamyork.fx5p1d3r.application.command.thread</text><!--entity A0D0--><rect fill="#FEFECE" filter="url(#fn7f3p6)" height="65.2188" style="stroke: #A80036; stroke-width: 1.5;" width="210" x="475.5" y="70"/><rect fill="#FEFECE" height="10" style="stroke: #A80036; stroke-width: 1.5;" width="15" x="665.5" y="75"/><rect fill="#FEFECE" height="2" style="stroke: #A80036; stroke-width: 1.5;" width="4" x="663.5" y="77"/><rect fill="#FEFECE" height="2" style="stroke: #A80036; stroke-width: 1.5;" width="4" x="663.5" y="81"/><text fill="#000000" font-family="sans-serif" font-size="14" lengthAdjust="spacingAndGlyphs" textLength="112" x="490.5" y="104.5332">UrlServiceFactory</text><text fill="#000000" font-family="sans-serif" font-size="14" lengthAdjust="spacingAndGlyphs" textLength="170" x="490.5" y="122.1426">getThrottledServiceForUrls</text><polygon fill="#FBFB77" filter="url(#fn7f3p6)" points="432,8.5,432,34.8516,729,34.8516,729,18.5,719,8.5,432,8.5" style="stroke: #A80036; stroke-width: 1.0;"/><polygon fill="#FBFB77" points="432,8.5,432,34.8516,576.5,34.8516,580.5,69.9102,584.5,34.8516,729,34.8516,729,18.5,719,8.5,432,8.5" style="stroke: #A80036; stroke-width: 1.0;"/><line style="stroke: #A80036; stroke-width: 1.0;" x1="719" x2="719" y1="8.5" y2="18.5"/><line style="stroke: #A80036; stroke-width: 1.0;" x1="729" x2="719" y1="18.5" y2="18.5"/><text fill="#000000" font-family="sans-serif" font-size="13" lengthAdjust="spacingAndGlyphs" textLength="276" x="438" y="26.9951">com.github.adamyork.fx5p1d3r.common.service</text><!--entity A0D0D0--><rect fill="#FEFECE" filter="url(#fn7f3p6)" height="65.2188" style="stroke: #A80036; stroke-width: 1.5;" width="161" x="857" y="70"/><rect fill="#FEFECE" height="10" style="stroke: #A80036; stroke-width: 1.5;" width="15" x="998" y="75"/><rect fill="#FEFECE" height="2" style="stroke: #A80036; stroke-width: 1.5;" width="4" x="996" y="77"/><rect fill="#FEFECE" height="2" style="stroke: #A80036; stroke-width: 1.5;" width="4" x="996" y="81"/><text fill="#000000" font-family="sans-serif" font-size="14" lengthAdjust="spacingAndGlyphs" textLength="121" x="872" y="104.5332">ThrottledUrlService</text><text fill="#000000" font-family="sans-serif" font-size="14" lengthAdjust="spacingAndGlyphs" textLength="25" x="872" y="122.1426">new</text><polygon fill="#FBFB77" filter="url(#fn7f3p6)" points="789,8.5,789,34.8516,1086,34.8516,1086,18.5,1076,8.5,789,8.5" style="stroke: #A80036; stroke-width: 1.0;"/><polygon fill="#FBFB77" points="789,8.5,789,34.8516,933.5,34.8516,937.5,69.9102,941.5,34.8516,1086,34.8516,1086,18.5,1076,8.5,789,8.5" style="stroke: #A80036; stroke-width: 1.0;"/><line style="stroke: #A80036; stroke-width: 1.0;" x1="1076" x2="1076" y1="8.5" y2="18.5"/><line style="stroke: #A80036; stroke-width: 1.0;" x1="1086" x2="1076" y1="18.5" y2="18.5"/><text fill="#000000" font-family="sans-serif" font-size="13" lengthAdjust="spacingAndGlyphs" textLength="276" x="795" y="26.9951">com.github.adamyork.fx5p1d3r.common.service</text><!--entity A0D0D0D0--><rect fill="#FEFECE" filter="url(#fn7f3p6)" height="65.2188" style="stroke: #A80036; stroke-width: 1.5;" width="161" x="1214" y="70"/><rect fill="#FEFECE" height="10" style="stroke: #A80036; stroke-width: 1.5;" width="15" x="1355" y="75"/><rect fill="#FEFECE" height="2" style="stroke: #A80036; stroke-width: 1.5;" width="4" x="1353" y="77"/><rect fill="#FEFECE" height="2" style="stroke: #A80036; stroke-width: 1.5;" width="4" x="1353" y="81"/><text fill="#000000" font-family="sans-serif" font-size="14" lengthAdjust="spacingAndGlyphs" textLength="121" x="1229" y="104.5332">ThrottledUrlService</text><text fill="#000000" font-family="sans-serif" font-size="14" lengthAdjust="spacingAndGlyphs" textLength="91" x="1229" y="122.1426">lambda$call$2</text><polygon fill="#FBFB77" filter="url(#fn7f3p6)" points="1146,8.5,1146,34.8516,1443,34.8516,1443,18.5,1433,8.5,1146,8.5" style="stroke: #A80036; stroke-width: 1.0;"/><polygon fill="#FBFB77" points="1146,8.5,1146,34.8516,1290.5,34.8516,1294.5,69.9102,1298.5,34.8516,1443,34.8516,1443,18.5,1433,8.5,1146,8.5" style="stroke: #A80036; stroke-width: 1.0;"/><line style="stroke: #A80036; stroke-width: 1.0;" x1="1433" x2="1433" y1="8.5" y2="18.5"/><line style="stroke: #A80036; stroke-width: 1.0;" x1="1443" x2="1433" y1="18.5" y2="18.5"/><text fill="#000000" font-family="sans-serif" font-size="13" lengthAdjust="spacingAndGlyphs" textLength="276" x="1152" y="26.9951">com.github.adamyork.fx5p1d3r.common.service</text><!--entity A0D0D0D0D0--><rect fill="#FEFECE" filter="url(#fn7f3p6)" height="65.2188" style="stroke: #A80036; stroke-width: 1.5;" width="161" x="1571" y="70"/><rect fill="#FEFECE" height="10" style="stroke: #A80036; stroke-width: 1.5;" width="15" x="1712" y="75"/><rect fill="#FEFECE" height="2" style="stroke: #A80036; stroke-width: 1.5;" width="4" x="1710" y="77"/><rect fill="#FEFECE" height="2" style="stroke: #A80036; stroke-width: 1.5;" width="4" x="1710" y="81"/><text fill="#000000" font-family="sans-serif" font-size="14" lengthAdjust="spacingAndGlyphs" textLength="121" x="1586" y="104.5332">ThrottledUrlService</text><text fill="#000000" font-family="sans-serif" font-size="14" lengthAdjust="spacingAndGlyphs" textLength="92" x="1586" y="122.1426">lambda$null$0</text><polygon fill="#FBFB77" filter="url(#fn7f3p6)" points="1503,8.5,1503,34.8516,1800,34.8516,1800,18.5,1790,8.5,1503,8.5" style="stroke: #A80036; stroke-width: 1.0;"/><polygon fill="#FBFB77" points="1503,8.5,1503,34.8516,1647.5,34.8516,1651.5,69.9102,1655.5,34.8516,1800,34.8516,1800,18.5,1790,8.5,1503,8.5" style="stroke: #A80036; stroke-width: 1.0;"/><line style="stroke: #A80036; stroke-width: 1.0;" x1="1790" x2="1790" y1="8.5" y2="18.5"/><line style="stroke: #A80036; stroke-width: 1.0;" x1="1800" x2="1790" y1="18.5" y2="18.5"/><text fill="#000000" font-family="sans-serif" font-size="13" lengthAdjust="spacingAndGlyphs" textLength="276" x="1509" y="26.9951">com.github.adamyork.fx5p1d3r.common.service</text><!--entity A0D0D0D0D0D0--><rect fill="#90EE90" filter="url(#fn7f3p6)" height="65.2188" style="stroke: #A80036; stroke-width: 1.5;" width="90" x="1860" y="70"/><rect fill="#90EE90" height="10" style="stroke: #A80036; stroke-width: 1.5;" width="15" x="1930" y="75"/><rect fill="#90EE90" height="2" style="stroke: #A80036; stroke-width: 1.5;" width="4" x="1928" y="77"/><rect fill="#90EE90" height="2" style="stroke: #A80036; stroke-width: 1.5;" width="4" x="1928" y="81"/><text fill="#000000" font-family="sans-serif" font-size="14" lengthAdjust="spacingAndGlyphs" textLength="37" x="1875" y="104.5332">Jsoup</text><text fill="#000000" font-family="sans-serif" font-size="14" lengthAdjust="spacingAndGlyphs" textLength="50" x="1875" y="122.1426">connect</text><polygon fill="#FBFB77" filter="url(#fn7f3p6)" points="1868,8.5,1868,34.8516,1942,34.8516,1942,18.5,1932,8.5,1868,8.5" style="stroke: #A80036; stroke-width: 1.0;"/><polygon fill="#FBFB77" points="1868,8.5,1868,34.8516,1901,34.8516,1905,69.9102,1909,34.8516,1942,34.8516,1942,18.5,1932,8.5,1868,8.5" style="stroke: #A80036; stroke-width: 1.0;"/><line style="stroke: #A80036; stroke-width: 1.0;" x1="1932" x2="1932" y1="8.5" y2="18.5"/><line style="stroke: #A80036; stroke-width: 1.0;" x1="1942" x2="1932" y1="18.5" y2="18.5"/><text fill="#000000" font-family="sans-serif" font-size="13" lengthAdjust="spacingAndGlyphs" textLength="53" x="1874" y="26.9951">org.jsoup</text><path d="M283.791,102.5 C339.838,102.5 411.305,102.5 469.94,102.5 " fill="none" style="stroke: #A80036; stroke-width: 1.0;"/><polygon fill="#A80036" points="475.214,102.5,466.214,98.5,470.214,102.5,466.214,106.5,475.214,102.5" style="stroke: #A80036; stroke-width: 1.0;"/><path d="M685.613,102.5 C738.524,102.5 801.994,102.5 851.856,102.5 " fill="none" style="stroke: #A80036; stroke-width: 1.0;"/><polygon fill="#A80036" points="856.945,102.5,847.945,98.5,851.945,102.5,847.945,106.5,856.945,102.5" style="stroke: #A80036; stroke-width: 1.0;"/><path d="M1018.17,102.5 C1074.82,102.5 1150.81,102.5 1208.61,102.5 " fill="none" style="stroke: #A80036; stroke-width: 1.0;"/><polygon fill="#A80036" points="1213.79,102.5,1204.79,98.5,1208.79,102.5,1204.79,106.5,1213.79,102.5" style="stroke: #A80036; stroke-width: 1.0;"/><path d="M1375.17,102.5 C1431.82,102.5 1507.81,102.5 1565.61,102.5 " fill="none" style="stroke: #A80036; stroke-width: 1.0;"/><polygon fill="#A80036" points="1570.79,102.5,1561.79,98.5,1565.79,102.5,1561.79,106.5,1570.79,102.5" style="stroke: #A80036; stroke-width: 1.0;"/><path d="M1732.08,102.5 C1772.27,102.5 1819.76,102.5 1854.64,102.5 " fill="none" style="stroke: #A80036; stroke-width: 1.0;"/><polygon fill="#A80036" points="1859.69,102.5,1850.69,98.5,1854.69,102.5,1850.69,106.5,1859.69,102.5" style="stroke: #A80036; stroke-width: 1.0;"/></g></svg>
