<?xml version="1.0" encoding="UTF-8" standalone="no"?><svg xmlns="http://www.w3.org/2000/svg" xmlns:xlink="http://www.w3.org/1999/xlink" contentScriptType="application/ecmascript" contentStyleType="text/css" height="144px" preserveAspectRatio="none" style="width:6414px;height:144px;" version="1.1" viewBox="0 0 6414 144" width="6414px" zoomAndPan="magnify"><defs><filter height="300%" id="f12w6qp" width="300%" x="-1" y="-1"><feGaussianBlur result="blurOut" stdDeviation="2.0"/><feColorMatrix in="blurOut" result="blurOut2" type="matrix" values="0 0 0 0 0 0 0 0 0 0 0 0 0 0 0 0 0 0 .4 0"/><feOffset dx="4.0" dy="4.0" in="blurOut2" result="blurOut3"/><feBlend in="SourceGraphic" in2="blurOut3" mode="normal"/></filter></defs><g><!--entity A0--><rect fill="#FEFECE" filter="url(#f12w6qp)" height="65.2188" style="stroke: #A80036; stroke-width: 1.5;" width="148" x="100" y="70"/><rect fill="#FEFECE" height="10" style="stroke: #A80036; stroke-width: 1.5;" width="15" x="228" y="75"/><rect fill="#FEFECE" height="2" style="stroke: #A80036; stroke-width: 1.5;" width="4" x="226" y="77"/><rect fill="#FEFECE" height="2" style="stroke: #A80036; stroke-width: 1.5;" width="4" x="226" y="81"/><text fill="#000000" font-family="sans-serif" font-size="14" lengthAdjust="spacingAndGlyphs" textLength="108" x="115" y="104.5332">ControlController</text><text fill="#000000" font-family="sans-serif" font-size="14" lengthAdjust="spacingAndGlyphs" textLength="73" x="115" y="122.1426">handleStart</text><polygon fill="#FBFB77" filter="url(#f12w6qp)" points="6,8.5,6,34.8516,342,34.8516,342,18.5,332,8.5,6,8.5" style="stroke: #A80036; stroke-width: 1.0;"/><polygon fill="#FBFB77" points="6,8.5,6,34.8516,170,34.8516,174,69.9102,178,34.8516,342,34.8516,342,18.5,332,8.5,6,8.5" style="stroke: #A80036; stroke-width: 1.0;"/><line style="stroke: #A80036; stroke-width: 1.0;" x1="332" x2="332" y1="8.5" y2="18.5"/><line style="stroke: #A80036; stroke-width: 1.0;" x1="342" x2="332" y1="18.5" y2="18.5"/><text fill="#000000" font-family="sans-serif" font-size="13" lengthAdjust="spacingAndGlyphs" textLength="315" x="12" y="26.9951">com.github.adamyork.fx5p1d3r.application.view.control</text><!--entity A0D0--><rect fill="#FEFECE" filter="url(#f12w6qp)" height="65.2188" style="stroke: #A80036; stroke-width: 1.5;" width="180" x="510.5" y="70"/><rect fill="#FEFECE" height="10" style="stroke: #A80036; stroke-width: 1.5;" width="15" x="670.5" y="75"/><rect fill="#FEFECE" height="2" style="stroke: #A80036; stroke-width: 1.5;" width="4" x="668.5" y="77"/><rect fill="#FEFECE" height="2" style="stroke: #A80036; stroke-width: 1.5;" width="4" x="668.5" y="81"/><text fill="#000000" font-family="sans-serif" font-size="14" lengthAdjust="spacingAndGlyphs" textLength="140" x="525.5" y="104.5332">ControlStartCommand</text><text fill="#000000" font-family="sans-serif" font-size="14" lengthAdjust="spacingAndGlyphs" textLength="49" x="525.5" y="122.1426">execute</text><polygon fill="#FBFB77" filter="url(#f12w6qp)" points="402,8.5,402,34.8516,799,34.8516,799,18.5,789,8.5,402,8.5" style="stroke: #A80036; stroke-width: 1.0;"/><polygon fill="#FBFB77" points="402,8.5,402,34.8516,596.5,34.8516,600.5,69.9102,604.5,34.8516,799,34.8516,799,18.5,789,8.5,402,8.5" style="stroke: #A80036; stroke-width: 1.0;"/><line style="stroke: #A80036; stroke-width: 1.0;" x1="789" x2="789" y1="8.5" y2="18.5"/><line style="stroke: #A80036; stroke-width: 1.0;" x1="799" x2="789" y1="18.5" y2="18.5"/><text fill="#000000" font-family="sans-serif" font-size="13" lengthAdjust="spacingAndGlyphs" textLength="376" x="408" y="26.9951">com.github.adamyork.fx5p1d3r.application.view.control.command</text><!--entity A0D0D0--><rect fill="#ADD8E6" filter="url(#f12w6qp)" height="65.2188" style="stroke: #A80036; stroke-width: 1.5;" width="175" x="970" y="70"/><rect fill="#ADD8E6" height="10" style="stroke: #A80036; stroke-width: 1.5;" width="15" x="1125" y="75"/><rect fill="#ADD8E6" height="2" style="stroke: #A80036; stroke-width: 1.5;" width="4" x="1123" y="77"/><rect fill="#ADD8E6" height="2" style="stroke: #A80036; stroke-width: 1.5;" width="4" x="1123" y="81"/><text fill="#000000" font-family="sans-serif" font-size="14" lengthAdjust="spacingAndGlyphs" textLength="135" x="985" y="104.5332">StartSpiderCommand</text><text fill="#000000" font-family="sans-serif" font-size="14" lengthAdjust="spacingAndGlyphs" textLength="49" x="985" y="122.1426">execute</text><polygon fill="#FBFB77" filter="url(#f12w6qp)" points="859,8.5,859,34.8516,1256,34.8516,1256,18.5,1246,8.5,859,8.5" style="stroke: #A80036; stroke-width: 1.0;"/><polygon fill="#FBFB77" points="859,8.5,859,34.8516,1053.5,34.8516,1057.5,69.9102,1061.5,34.8516,1256,34.8516,1256,18.5,1246,8.5,859,8.5" style="stroke: #A80036; stroke-width: 1.0;"/><line style="stroke: #A80036; stroke-width: 1.0;" x1="1246" x2="1246" y1="8.5" y2="18.5"/><line style="stroke: #A80036; stroke-width: 1.0;" x1="1256" x2="1246" y1="18.5" y2="18.5"/><text fill="#000000" font-family="sans-serif" font-size="13" lengthAdjust="spacingAndGlyphs" textLength="376" x="865" y="26.9951">com.github.adamyork.fx5p1d3r.application.view.control.command</text><!--entity A0D0D0D0--><rect fill="#FEFECE" filter="url(#f12w6qp)" height="65.2188" style="stroke: #A80036; stroke-width: 1.5;" width="173" x="1386.5" y="70"/><rect fill="#FEFECE" height="10" style="stroke: #A80036; stroke-width: 1.5;" width="15" x="1539.5" y="75"/><rect fill="#FEFECE" height="2" style="stroke: #A80036; stroke-width: 1.5;" width="4" x="1537.5" y="77"/><rect fill="#FEFECE" height="2" style="stroke: #A80036; stroke-width: 1.5;" width="4" x="1537.5" y="81"/><text fill="#000000" font-family="sans-serif" font-size="14" lengthAdjust="spacingAndGlyphs" textLength="133" x="1401.5" y="104.5332">ApplicationCommand</text><text fill="#000000" font-family="sans-serif" font-size="14" lengthAdjust="spacingAndGlyphs" textLength="49" x="1401.5" y="122.1426">execute</text><polygon fill="#FBFB77" filter="url(#f12w6qp)" points="1316,8.5,1316,34.8516,1630,34.8516,1630,18.5,1620,8.5,1316,8.5" style="stroke: #A80036; stroke-width: 1.0;"/><polygon fill="#FBFB77" points="1316,8.5,1316,34.8516,1469,34.8516,1473,69.9102,1477,34.8516,1630,34.8516,1630,18.5,1620,8.5,1316,8.5" style="stroke: #A80036; stroke-width: 1.0;"/><line style="stroke: #A80036; stroke-width: 1.0;" x1="1620" x2="1620" y1="8.5" y2="18.5"/><line style="stroke: #A80036; stroke-width: 1.0;" x1="1630" x2="1620" y1="18.5" y2="18.5"/><text fill="#000000" font-family="sans-serif" font-size="13" lengthAdjust="spacingAndGlyphs" textLength="293" x="1322" y="26.9951">com.github.adamyork.fx5p1d3r.common.command</text><!--entity A0D0D0D0D0--><rect fill="#ADD8E6" filter="url(#f12w6qp)" height="65.2188" style="stroke: #A80036; stroke-width: 1.5;" width="160" x="1782" y="70"/><rect fill="#ADD8E6" height="10" style="stroke: #A80036; stroke-width: 1.5;" width="15" x="1922" y="75"/><rect fill="#ADD8E6" height="2" style="stroke: #A80036; stroke-width: 1.5;" width="4" x="1920" y="77"/><rect fill="#ADD8E6" height="2" style="stroke: #A80036; stroke-width: 1.5;" width="4" x="1920" y="81"/><text fill="#000000" font-family="sans-serif" font-size="14" lengthAdjust="spacingAndGlyphs" textLength="120" x="1797" y="104.5332">SingleUrlCommand</text><text fill="#000000" font-family="sans-serif" font-size="14" lengthAdjust="spacingAndGlyphs" textLength="49" x="1797" y="122.1426">execute</text><polygon fill="#FBFB77" filter="url(#f12w6qp)" points="1690,8.5,1690,34.8516,2034,34.8516,2034,18.5,2024,8.5,1690,8.5" style="stroke: #A80036; stroke-width: 1.0;"/><polygon fill="#FBFB77" points="1690,8.5,1690,34.8516,1858,34.8516,1862,69.9102,1866,34.8516,2034,34.8516,2034,18.5,2024,8.5,1690,8.5" style="stroke: #A80036; stroke-width: 1.0;"/><line style="stroke: #A80036; stroke-width: 1.0;" x1="2024" x2="2024" y1="8.5" y2="18.5"/><line style="stroke: #A80036; stroke-width: 1.0;" x1="2034" x2="2024" y1="18.5" y2="18.5"/><text fill="#000000" font-family="sans-serif" font-size="13" lengthAdjust="spacingAndGlyphs" textLength="323" x="1696" y="26.9951">com.github.adamyork.fx5p1d3r.application.command.url</text><!--entity A0D0D0D0D0D0--><rect fill="#FEFECE" filter="url(#f12w6qp)" height="65.2188" style="stroke: #A80036; stroke-width: 1.5;" width="177" x="2177.5" y="70"/><rect fill="#FEFECE" height="10" style="stroke: #A80036; stroke-width: 1.5;" width="15" x="2334.5" y="75"/><rect fill="#FEFECE" height="2" style="stroke: #A80036; stroke-width: 1.5;" width="4" x="2332.5" y="77"/><rect fill="#FEFECE" height="2" style="stroke: #A80036; stroke-width: 1.5;" width="4" x="2332.5" y="81"/><text fill="#000000" font-family="sans-serif" font-size="14" lengthAdjust="spacingAndGlyphs" textLength="137" x="2192.5" y="104.5332">UrlValidatorCommand</text><text fill="#000000" font-family="sans-serif" font-size="14" lengthAdjust="spacingAndGlyphs" textLength="49" x="2192.5" y="122.1426">execute</text><polygon fill="#FBFB77" filter="url(#f12w6qp)" points="2094,8.5,2094,34.8516,2438,34.8516,2438,18.5,2428,8.5,2094,8.5" style="stroke: #A80036; stroke-width: 1.0;"/><polygon fill="#FBFB77" points="2094,8.5,2094,34.8516,2262,34.8516,2266,69.9102,2270,34.8516,2438,34.8516,2438,18.5,2428,8.5,2094,8.5" style="stroke: #A80036; stroke-width: 1.0;"/><line style="stroke: #A80036; stroke-width: 1.0;" x1="2428" x2="2428" y1="8.5" y2="18.5"/><line style="stroke: #A80036; stroke-width: 1.0;" x1="2438" x2="2428" y1="18.5" y2="18.5"/><text fill="#000000" font-family="sans-serif" font-size="13" lengthAdjust="spacingAndGlyphs" textLength="323" x="2100" y="26.9951">com.github.adamyork.fx5p1d3r.application.command.url</text><!--entity A0D0D0D0D0D0D0--><rect fill="#FEFECE" filter="url(#f12w6qp)" height="65.2188" style="stroke: #A80036; stroke-width: 1.5;" width="173" x="2568.5" y="70"/><rect fill="#FEFECE" height="10" style="stroke: #A80036; stroke-width: 1.5;" width="15" x="2721.5" y="75"/><rect fill="#FEFECE" height="2" style="stroke: #A80036; stroke-width: 1.5;" width="4" x="2719.5" y="77"/><rect fill="#FEFECE" height="2" style="stroke: #A80036; stroke-width: 1.5;" width="4" x="2719.5" y="81"/><text fill="#000000" font-family="sans-serif" font-size="14" lengthAdjust="spacingAndGlyphs" textLength="133" x="2583.5" y="104.5332">ApplicationCommand</text><text fill="#000000" font-family="sans-serif" font-size="14" lengthAdjust="spacingAndGlyphs" textLength="49" x="2583.5" y="122.1426">execute</text><polygon fill="#FBFB77" filter="url(#f12w6qp)" points="2498,8.5,2498,34.8516,2812,34.8516,2812,18.5,2802,8.5,2498,8.5" style="stroke: #A80036; stroke-width: 1.0;"/><polygon fill="#FBFB77" points="2498,8.5,2498,34.8516,2651,34.8516,2655,69.9102,2659,34.8516,2812,34.8516,2812,18.5,2802,8.5,2498,8.5" style="stroke: #A80036; stroke-width: 1.0;"/><line style="stroke: #A80036; stroke-width: 1.0;" x1="2802" x2="2802" y1="8.5" y2="18.5"/><line style="stroke: #A80036; stroke-width: 1.0;" x1="2812" x2="2802" y1="18.5" y2="18.5"/><text fill="#000000" font-family="sans-serif" font-size="13" lengthAdjust="spacingAndGlyphs" textLength="293" x="2504" y="26.9951">com.github.adamyork.fx5p1d3r.common.command</text><!--entity A0D0D0D0D0D0D0D0--><rect fill="#ADD8E6" filter="url(#f12w6qp)" height="65.2188" style="stroke: #A80036; stroke-width: 1.5;" width="179" x="2965.5" y="70"/><rect fill="#ADD8E6" height="10" style="stroke: #A80036; stroke-width: 1.5;" width="15" x="3124.5" y="75"/><rect fill="#ADD8E6" height="2" style="stroke: #A80036; stroke-width: 1.5;" width="4" x="3122.5" y="77"/><rect fill="#ADD8E6" height="2" style="stroke: #A80036; stroke-width: 1.5;" width="4" x="3122.5" y="81"/><text fill="#000000" font-family="sans-serif" font-size="14" lengthAdjust="spacingAndGlyphs" textLength="139" x="2980.5" y="104.5332">MultiThreadCommand</text><text fill="#000000" font-family="sans-serif" font-size="14" lengthAdjust="spacingAndGlyphs" textLength="49" x="2980.5" y="122.1426">execute</text><polygon fill="#FBFB77" filter="url(#f12w6qp)" points="2872,8.5,2872,34.8516,3238,34.8516,3238,18.5,3228,8.5,2872,8.5" style="stroke: #A80036; stroke-width: 1.0;"/><polygon fill="#FBFB77" points="2872,8.5,2872,34.8516,3051,34.8516,3055,69.9102,3059,34.8516,3238,34.8516,3238,18.5,3228,8.5,2872,8.5" style="stroke: #A80036; stroke-width: 1.0;"/><line style="stroke: #A80036; stroke-width: 1.0;" x1="3228" x2="3228" y1="8.5" y2="18.5"/><line style="stroke: #A80036; stroke-width: 1.0;" x1="3238" x2="3228" y1="18.5" y2="18.5"/><text fill="#000000" font-family="sans-serif" font-size="13" lengthAdjust="spacingAndGlyphs" textLength="345" x="2878" y="26.9951">com.github.adamyork.fx5p1d3r.application.command.thread</text><!--entity A0D0D0D0D0D0D0D0D0--><rect fill="#FEFECE" filter="url(#f12w6qp)" height="65.2188" style="stroke: #A80036; stroke-width: 1.5;" width="188" x="3387" y="70"/><rect fill="#FEFECE" height="10" style="stroke: #A80036; stroke-width: 1.5;" width="15" x="3555" y="75"/><rect fill="#FEFECE" height="2" style="stroke: #A80036; stroke-width: 1.5;" width="4" x="3553" y="77"/><rect fill="#FEFECE" height="2" style="stroke: #A80036; stroke-width: 1.5;" width="4" x="3553" y="81"/><text fill="#000000" font-family="sans-serif" font-size="14" lengthAdjust="spacingAndGlyphs" textLength="139" x="3402" y="104.5332">MultiThreadCommand</text><text fill="#000000" font-family="sans-serif" font-size="14" lengthAdjust="spacingAndGlyphs" textLength="148" x="3402" y="122.1426">onDocumentsRetrieved</text><polygon fill="#FBFB77" filter="url(#f12w6qp)" points="3298,8.5,3298,34.8516,3664,34.8516,3664,18.5,3654,8.5,3298,8.5" style="stroke: #A80036; stroke-width: 1.0;"/><polygon fill="#FBFB77" points="3298,8.5,3298,34.8516,3477,34.8516,3481,69.9102,3485,34.8516,3664,34.8516,3664,18.5,3654,8.5,3298,8.5" style="stroke: #A80036; stroke-width: 1.0;"/><line style="stroke: #A80036; stroke-width: 1.0;" x1="3654" x2="3654" y1="8.5" y2="18.5"/><line style="stroke: #A80036; stroke-width: 1.0;" x1="3664" x2="3654" y1="18.5" y2="18.5"/><text fill="#000000" font-family="sans-serif" font-size="13" lengthAdjust="spacingAndGlyphs" textLength="345" x="3304" y="26.9951">com.github.adamyork.fx5p1d3r.application.command.thread</text><!--entity A0D0D0D0D0D0D0D0D0D0--><rect fill="#FEFECE" filter="url(#f12w6qp)" height="65.2188" style="stroke: #A80036; stroke-width: 1.5;" width="258" x="3778" y="70"/><rect fill="#FEFECE" height="10" style="stroke: #A80036; stroke-width: 1.5;" width="15" x="4016" y="75"/><rect fill="#FEFECE" height="2" style="stroke: #A80036; stroke-width: 1.5;" width="4" x="4014" y="77"/><rect fill="#FEFECE" height="2" style="stroke: #A80036; stroke-width: 1.5;" width="4" x="4014" y="81"/><text fill="#000000" font-family="sans-serif" font-size="14" lengthAdjust="spacingAndGlyphs" textLength="139" x="3793" y="104.5332">MultiThreadCommand</text><text fill="#000000" font-family="sans-serif" font-size="14" lengthAdjust="spacingAndGlyphs" textLength="218" x="3793" y="122.1426">lambda$onDocumentsRetrieved$1</text><polygon fill="#FBFB77" filter="url(#f12w6qp)" points="3724,8.5,3724,34.8516,4090,34.8516,4090,18.5,4080,8.5,3724,8.5" style="stroke: #A80036; stroke-width: 1.0;"/><polygon fill="#FBFB77" points="3724,8.5,3724,34.8516,3903,34.8516,3907,69.9102,3911,34.8516,4090,34.8516,4090,18.5,4080,8.5,3724,8.5" style="stroke: #A80036; stroke-width: 1.0;"/><line style="stroke: #A80036; stroke-width: 1.0;" x1="4080" x2="4080" y1="8.5" y2="18.5"/><line style="stroke: #A80036; stroke-width: 1.0;" x1="4090" x2="4080" y1="18.5" y2="18.5"/><text fill="#000000" font-family="sans-serif" font-size="13" lengthAdjust="spacingAndGlyphs" textLength="345" x="3730" y="26.9951">com.github.adamyork.fx5p1d3r.application.command.thread</text><!--entity A0D0D0D0D0D0D0D0D0D0D0--><rect fill="#FEFECE" filter="url(#f12w6qp)" height="65.2188" style="stroke: #A80036; stroke-width: 1.5;" width="179" x="4243.5" y="70"/><rect fill="#FEFECE" height="10" style="stroke: #A80036; stroke-width: 1.5;" width="15" x="4402.5" y="75"/><rect fill="#FEFECE" height="2" style="stroke: #A80036; stroke-width: 1.5;" width="4" x="4400.5" y="77"/><rect fill="#FEFECE" height="2" style="stroke: #A80036; stroke-width: 1.5;" width="4" x="4400.5" y="81"/><text fill="#000000" font-family="sans-serif" font-size="14" lengthAdjust="spacingAndGlyphs" textLength="139" x="4258.5" y="104.5332">MultiThreadCommand</text><text fill="#000000" font-family="sans-serif" font-size="14" lengthAdjust="spacingAndGlyphs" textLength="92" x="4258.5" y="122.1426">lambda$null$0</text><polygon fill="#FBFB77" filter="url(#f12w6qp)" points="4150,8.5,4150,34.8516,4516,34.8516,4516,18.5,4506,8.5,4150,8.5" style="stroke: #A80036; stroke-width: 1.0;"/><polygon fill="#FBFB77" points="4150,8.5,4150,34.8516,4329,34.8516,4333,69.9102,4337,34.8516,4516,34.8516,4516,18.5,4506,8.5,4150,8.5" style="stroke: #A80036; stroke-width: 1.0;"/><line style="stroke: #A80036; stroke-width: 1.0;" x1="4506" x2="4506" y1="8.5" y2="18.5"/><line style="stroke: #A80036; stroke-width: 1.0;" x1="4516" x2="4506" y1="18.5" y2="18.5"/><text fill="#000000" font-family="sans-serif" font-size="13" lengthAdjust="spacingAndGlyphs" textLength="345" x="4156" y="26.9951">com.github.adamyork.fx5p1d3r.application.command.thread</text><!--entity A0D0D0D0D0D0D0D0D0D0D0D0--><rect fill="#FEFECE" filter="url(#f12w6qp)" height="65.2188" style="stroke: #A80036; stroke-width: 1.5;" width="146" x="4667" y="70"/><rect fill="#FEFECE" height="10" style="stroke: #A80036; stroke-width: 1.5;" width="15" x="4793" y="75"/><rect fill="#FEFECE" height="2" style="stroke: #A80036; stroke-width: 1.5;" width="4" x="4791" y="77"/><rect fill="#FEFECE" height="2" style="stroke: #A80036; stroke-width: 1.5;" width="4" x="4791" y="81"/><text fill="#000000" font-family="sans-serif" font-size="14" lengthAdjust="spacingAndGlyphs" textLength="106" x="4682" y="104.5332">ParserCommand</text><text fill="#000000" font-family="sans-serif" font-size="14" lengthAdjust="spacingAndGlyphs" textLength="49" x="4682" y="122.1426">execute</text><polygon fill="#FBFB77" filter="url(#f12w6qp)" points="4576,8.5,4576,34.8516,4904,34.8516,4904,18.5,4894,8.5,4576,8.5" style="stroke: #A80036; stroke-width: 1.0;"/><polygon fill="#FBFB77" points="4576,8.5,4576,34.8516,4736,34.8516,4740,69.9102,4744,34.8516,4904,34.8516,4904,18.5,4894,8.5,4576,8.5" style="stroke: #A80036; stroke-width: 1.0;"/><line style="stroke: #A80036; stroke-width: 1.0;" x1="4894" x2="4894" y1="8.5" y2="18.5"/><line style="stroke: #A80036; stroke-width: 1.0;" x1="4904" x2="4894" y1="18.5" y2="18.5"/><text fill="#000000" font-family="sans-serif" font-size="13" lengthAdjust="spacingAndGlyphs" textLength="307" x="4582" y="26.9951">com.github.adamyork.fx5p1d3r.common.command.io</text><!--entity A0D0D0D0D0D0D0D0D0D0D0D0D0--><rect fill="#ADD8E6" filter="url(#f12w6qp)" height="65.2188" style="stroke: #A80036; stroke-width: 1.5;" width="239" x="5014.5" y="70"/><rect fill="#ADD8E6" height="10" style="stroke: #A80036; stroke-width: 1.5;" width="15" x="5233.5" y="75"/><rect fill="#ADD8E6" height="2" style="stroke: #A80036; stroke-width: 1.5;" width="4" x="5231.5" y="77"/><rect fill="#ADD8E6" height="2" style="stroke: #A80036; stroke-width: 1.5;" width="4" x="5231.5" y="81"/><text fill="#000000" font-family="sans-serif" font-size="14" lengthAdjust="spacingAndGlyphs" textLength="199" x="5029.5" y="104.5332">DocumentParserJsonCommand</text><text fill="#000000" font-family="sans-serif" font-size="14" lengthAdjust="spacingAndGlyphs" textLength="49" x="5029.5" y="122.1426">execute</text><polygon fill="#FBFB77" filter="url(#f12w6qp)" points="4964,8.5,4964,34.8516,5304,34.8516,5304,18.5,5294,8.5,4964,8.5" style="stroke: #A80036; stroke-width: 1.0;"/><polygon fill="#FBFB77" points="4964,8.5,4964,34.8516,5130,34.8516,5134,69.9102,5138,34.8516,5304,34.8516,5304,18.5,5294,8.5,4964,8.5" style="stroke: #A80036; stroke-width: 1.0;"/><line style="stroke: #A80036; stroke-width: 1.0;" x1="5294" x2="5294" y1="8.5" y2="18.5"/><line style="stroke: #A80036; stroke-width: 1.0;" x1="5304" x2="5294" y1="18.5" y2="18.5"/><text fill="#000000" font-family="sans-serif" font-size="13" lengthAdjust="spacingAndGlyphs" textLength="319" x="4970" y="26.9951">com.github.adamyork.fx5p1d3r.application.command.io</text><!--entity A0D0D0D0D0D0D0D0D0D0D0D0D0D0--><rect fill="#FEFECE" filter="url(#f12w6qp)" height="65.2188" style="stroke: #A80036; stroke-width: 1.5;" width="147" x="5454.5" y="70"/><rect fill="#FEFECE" height="10" style="stroke: #A80036; stroke-width: 1.5;" width="15" x="5581.5" y="75"/><rect fill="#FEFECE" height="2" style="stroke: #A80036; stroke-width: 1.5;" width="4" x="5579.5" y="77"/><rect fill="#FEFECE" height="2" style="stroke: #A80036; stroke-width: 1.5;" width="4" x="5579.5" y="81"/><text fill="#000000" font-family="sans-serif" font-size="14" lengthAdjust="spacingAndGlyphs" textLength="107" x="5469.5" y="104.5332">OutputCommand</text><text fill="#000000" font-family="sans-serif" font-size="14" lengthAdjust="spacingAndGlyphs" textLength="49" x="5469.5" y="122.1426">execute</text><polygon fill="#FBFB77" filter="url(#f12w6qp)" points="5364,8.5,5364,34.8516,5692,34.8516,5692,18.5,5682,8.5,5364,8.5" style="stroke: #A80036; stroke-width: 1.0;"/><polygon fill="#FBFB77" points="5364,8.5,5364,34.8516,5524,34.8516,5528,69.9102,5532,34.8516,5692,34.8516,5692,18.5,5682,8.5,5364,8.5" style="stroke: #A80036; stroke-width: 1.0;"/><line style="stroke: #A80036; stroke-width: 1.0;" x1="5682" x2="5682" y1="8.5" y2="18.5"/><line style="stroke: #A80036; stroke-width: 1.0;" x1="5692" x2="5682" y1="18.5" y2="18.5"/><text fill="#000000" font-family="sans-serif" font-size="13" lengthAdjust="spacingAndGlyphs" textLength="307" x="5370" y="26.9951">com.github.adamyork.fx5p1d3r.common.command.io</text><!--entity A0D0D0D0D0D0D0D0D0D0D0D0D0D0D0--><rect fill="#ADD8E6" filter="url(#f12w6qp)" height="65.2188" style="stroke: #A80036; stroke-width: 1.5;" width="231" x="5806.5" y="70"/><rect fill="#ADD8E6" height="10" style="stroke: #A80036; stroke-width: 1.5;" width="15" x="6017.5" y="75"/><rect fill="#ADD8E6" height="2" style="stroke: #A80036; stroke-width: 1.5;" width="4" x="6015.5" y="77"/><rect fill="#ADD8E6" height="2" style="stroke: #A80036; stroke-width: 1.5;" width="4" x="6015.5" y="81"/><text fill="#000000" font-family="sans-serif" font-size="14" lengthAdjust="spacingAndGlyphs" textLength="191" x="5821.5" y="104.5332">OutputFileTypeJsonCommand</text><text fill="#000000" font-family="sans-serif" font-size="14" lengthAdjust="spacingAndGlyphs" textLength="49" x="5821.5" y="122.1426">execute</text><polygon fill="#FBFB77" filter="url(#f12w6qp)" points="5752,8.5,5752,34.8516,6092,34.8516,6092,18.5,6082,8.5,5752,8.5" style="stroke: #A80036; stroke-width: 1.0;"/><polygon fill="#FBFB77" points="5752,8.5,5752,34.8516,5918,34.8516,5922,69.9102,5926,34.8516,6092,34.8516,6092,18.5,6082,8.5,5752,8.5" style="stroke: #A80036; stroke-width: 1.0;"/><line style="stroke: #A80036; stroke-width: 1.0;" x1="6082" x2="6082" y1="8.5" y2="18.5"/><line style="stroke: #A80036; stroke-width: 1.0;" x1="6092" x2="6082" y1="18.5" y2="18.5"/><text fill="#000000" font-family="sans-serif" font-size="13" lengthAdjust="spacingAndGlyphs" textLength="319" x="5758" y="26.9951">com.github.adamyork.fx5p1d3r.application.command.io</text><!--entity A0D0D0D0D0D0D0D0D0D0D0D0D0D0D0D0--><rect fill="#90EE90" filter="url(#f12w6qp)" height="65.2188" style="stroke: #A80036; stroke-width: 1.5;" width="139" x="6209" y="70"/><rect fill="#90EE90" height="10" style="stroke: #A80036; stroke-width: 1.5;" width="15" x="6328" y="75"/><rect fill="#90EE90" height="2" style="stroke: #A80036; stroke-width: 1.5;" width="4" x="6326" y="77"/><rect fill="#90EE90" height="2" style="stroke: #A80036; stroke-width: 1.5;" width="4" x="6326" y="81"/><text fill="#000000" font-family="sans-serif" font-size="14" lengthAdjust="spacingAndGlyphs" textLength="99" x="6224" y="104.5332">OutputManager</text><text fill="#000000" font-family="sans-serif" font-size="14" lengthAdjust="spacingAndGlyphs" textLength="91" x="6224" y="122.1426">writeJsonEntry</text><polygon fill="#FBFB77" filter="url(#f12w6qp)" points="6152,8.5,6152,34.8516,6405,34.8516,6405,18.5,6395,8.5,6152,8.5" style="stroke: #A80036; stroke-width: 1.0;"/><polygon fill="#FBFB77" points="6152,8.5,6152,34.8516,6274.5,34.8516,6278.5,69.9102,6282.5,34.8516,6405,34.8516,6405,18.5,6395,8.5,6152,8.5" style="stroke: #A80036; stroke-width: 1.0;"/><line style="stroke: #A80036; stroke-width: 1.0;" x1="6395" x2="6395" y1="8.5" y2="18.5"/><line style="stroke: #A80036; stroke-width: 1.0;" x1="6405" x2="6395" y1="18.5" y2="18.5"/><text fill="#000000" font-family="sans-serif" font-size="13" lengthAdjust="spacingAndGlyphs" textLength="232" x="6158" y="26.9951">com.github.adamyork.fx5p1d3r.common</text><path d="M248.458,102.5 C319.627,102.5 427.871,102.5 505.335,102.5 " fill="none" style="stroke: #A80036; stroke-width: 1.0;"/><polygon fill="#A80036" points="510.392,102.5,501.392,98.5,505.392,102.5,501.392,106.5,510.392,102.5" style="stroke: #A80036; stroke-width: 1.0;"/><path d="M690.579,102.5 C769.69,102.5 884.827,102.5 964.739,102.5 " fill="none" style="stroke: #A80036; stroke-width: 1.0;"/><polygon fill="#A80036" points="969.95,102.5,960.95,98.5,964.95,102.5,960.95,106.5,969.95,102.5" style="stroke: #A80036; stroke-width: 1.0;"/><path d="M1145.18,102.5 C1214.45,102.5 1311.23,102.5 1381.48,102.5 " fill="none" style="stroke: #A80036; stroke-width: 1.0;"/><polygon fill="#A80036" points="1386.49,102.5,1377.49,98.5,1381.49,102.5,1377.49,106.5,1386.49,102.5" style="stroke: #A80036; stroke-width: 1.0;"/><path d="M1559.89,102.5 C1624.43,102.5 1712.4,102.5 1776.59,102.5 " fill="none" style="stroke: #A80036; stroke-width: 1.0;"/><polygon fill="#A80036" points="1781.94,102.5,1772.94,98.5,1776.94,102.5,1772.94,106.5,1781.94,102.5" style="stroke: #A80036; stroke-width: 1.0;"/><path d="M1942.42,102.5 C2008.43,102.5 2102.47,102.5 2171.99,102.5 " fill="none" style="stroke: #A80036; stroke-width: 1.0;"/><polygon fill="#A80036" points="2177.37,102.5,2168.37,98.5,2172.37,102.5,2168.37,106.5,2177.37,102.5" style="stroke: #A80036; stroke-width: 1.0;"/><path d="M2354.82,102.5 C2416.96,102.5 2500.09,102.5 2562.94,102.5 " fill="none" style="stroke: #A80036; stroke-width: 1.0;"/><polygon fill="#A80036" points="2568.2,102.5,2559.2,98.5,2563.2,102.5,2559.2,106.5,2568.2,102.5" style="stroke: #A80036; stroke-width: 1.0;"/><path d="M2741.87,102.5 C2806.12,102.5 2893.94,102.5 2960.06,102.5 " fill="none" style="stroke: #A80036; stroke-width: 1.0;"/><polygon fill="#A80036" points="2965.18,102.5,2956.18,98.5,2960.18,102.5,2956.18,106.5,2965.18,102.5" style="stroke: #A80036; stroke-width: 1.0;"/><path d="M3144.63,102.5 C3213.85,102.5 3310,102.5 3381.6,102.5 " fill="none" style="stroke: #A80036; stroke-width: 1.0;"/><polygon fill="#A80036" points="3386.72,102.5,3377.72,98.5,3381.72,102.5,3377.72,106.5,3386.72,102.5" style="stroke: #A80036; stroke-width: 1.0;"/><path d="M3575.05,102.5 C3632.9,102.5 3708.23,102.5 3772.4,102.5 " fill="none" style="stroke: #A80036; stroke-width: 1.0;"/><polygon fill="#A80036" points="3777.79,102.5,3768.79,98.5,3772.79,102.5,3768.79,106.5,3777.79,102.5" style="stroke: #A80036; stroke-width: 1.0;"/><path d="M4036.08,102.5 C4101.04,102.5 4178.53,102.5 4237.92,102.5 " fill="none" style="stroke: #A80036; stroke-width: 1.0;"/><polygon fill="#A80036" points="4243.25,102.5,4234.25,98.5,4238.25,102.5,4234.25,106.5,4243.25,102.5" style="stroke: #A80036; stroke-width: 1.0;"/><path d="M4422.63,102.5 C4493.98,102.5 4593.29,102.5 4661.51,102.5 " fill="none" style="stroke: #A80036; stroke-width: 1.0;"/><polygon fill="#A80036" points="4666.77,102.5,4657.77,98.5,4661.77,102.5,4657.77,106.5,4666.77,102.5" style="stroke: #A80036; stroke-width: 1.0;"/><path d="M4813.36,102.5 C4868.23,102.5 4944.95,102.5 5009.48,102.5 " fill="none" style="stroke: #A80036; stroke-width: 1.0;"/><polygon fill="#A80036" points="5014.5,102.5,5005.5,98.5,5009.5,102.5,5005.5,106.5,5014.5,102.5" style="stroke: #A80036; stroke-width: 1.0;"/><path d="M5253.68,102.5 C5316.98,102.5 5393.11,102.5 5448.92,102.5 " fill="none" style="stroke: #A80036; stroke-width: 1.0;"/><polygon fill="#A80036" points="5454.26,102.5,5445.26,98.5,5449.26,102.5,5445.26,106.5,5454.26,102.5" style="stroke: #A80036; stroke-width: 1.0;"/><path d="M5601.81,102.5 C5657.7,102.5 5736.07,102.5 5801.16,102.5 " fill="none" style="stroke: #A80036; stroke-width: 1.0;"/><polygon fill="#A80036" points="5806.22,102.5,5797.22,98.5,5801.22,102.5,5797.22,106.5,5806.22,102.5" style="stroke: #A80036; stroke-width: 1.0;"/><path d="M6037.61,102.5 C6092.16,102.5 6155.8,102.5 6203.81,102.5 " fill="none" style="stroke: #A80036; stroke-width: 1.0;"/><polygon fill="#A80036" points="6209,102.5,6200,98.5,6204,102.5,6200,106.5,6209,102.5" style="stroke: #A80036; stroke-width: 1.0;"/></g></svg>
