<?xml version="1.0" encoding="UTF-8" standalone="no"?><svg xmlns="http://www.w3.org/2000/svg" xmlns:xlink="http://www.w3.org/1999/xlink" contentScriptType="application/ecmascript" contentStyleType="text/css" height="549px" preserveAspectRatio="none" style="width:2766px;height:549px;" version="1.1" viewBox="0 0 2766 549" width="2766px" zoomAndPan="magnify"><defs><filter height="300%" id="fl0wzl5" width="300%" x="-1" y="-1"><feGaussianBlur result="blurOut" stdDeviation="2.0"/><feColorMatrix in="blurOut" result="blurOut2" type="matrix" values="0 0 0 0 0 0 0 0 0 0 0 0 0 0 0 0 0 0 .4 0"/><feOffset dx="4.0" dy="4.0" in="blurOut2" result="blurOut3"/><feBlend in="SourceGraphic" in2="blurOut3" mode="normal"/></filter></defs><g><!--entity A0--><rect fill="#FEFECE" filter="url(#fl0wzl5)" height="65.2188" style="stroke: #A80036; stroke-width: 1.5;" width="148" x="100" y="313"/><rect fill="#FEFECE" height="10" style="stroke: #A80036; stroke-width: 1.5;" width="15" x="228" y="318"/><rect fill="#FEFECE" height="2" style="stroke: #A80036; stroke-width: 1.5;" width="4" x="226" y="320"/><rect fill="#FEFECE" height="2" style="stroke: #A80036; stroke-width: 1.5;" width="4" x="226" y="324"/><text fill="#000000" font-family="sans-serif" font-size="14" lengthAdjust="spacingAndGlyphs" textLength="108" x="115" y="347.5332">ControlController</text><text fill="#000000" font-family="sans-serif" font-size="14" lengthAdjust="spacingAndGlyphs" textLength="73" x="115" y="365.1426">handleStart</text><polygon fill="#FBFB77" filter="url(#fl0wzl5)" points="6,251.5,6,277.8516,342,277.8516,342,261.5,332,251.5,6,251.5" style="stroke: #A80036; stroke-width: 1.0;"/><polygon fill="#FBFB77" points="6,251.5,6,277.8516,170,277.8516,174,312.91,178,277.8516,342,277.8516,342,261.5,332,251.5,6,251.5" style="stroke: #A80036; stroke-width: 1.0;"/><line style="stroke: #A80036; stroke-width: 1.0;" x1="332" x2="332" y1="251.5" y2="261.5"/><line style="stroke: #A80036; stroke-width: 1.0;" x1="342" x2="332" y1="261.5" y2="261.5"/><text fill="#000000" font-family="sans-serif" font-size="13" lengthAdjust="spacingAndGlyphs" textLength="315" x="12" y="269.9951">com.github.adamyork.fx5p1d3r.application.view.control</text><!--entity A0D0--><rect fill="#FEFECE" filter="url(#fl0wzl5)" height="65.2188" style="stroke: #A80036; stroke-width: 1.5;" width="180" x="510.5" y="313"/><rect fill="#FEFECE" height="10" style="stroke: #A80036; stroke-width: 1.5;" width="15" x="670.5" y="318"/><rect fill="#FEFECE" height="2" style="stroke: #A80036; stroke-width: 1.5;" width="4" x="668.5" y="320"/><rect fill="#FEFECE" height="2" style="stroke: #A80036; stroke-width: 1.5;" width="4" x="668.5" y="324"/><text fill="#000000" font-family="sans-serif" font-size="14" lengthAdjust="spacingAndGlyphs" textLength="140" x="525.5" y="347.5332">ControlStartCommand</text><text fill="#000000" font-family="sans-serif" font-size="14" lengthAdjust="spacingAndGlyphs" textLength="49" x="525.5" y="365.1426">execute</text><polygon fill="#FBFB77" filter="url(#fl0wzl5)" points="402,251.5,402,277.8516,799,277.8516,799,261.5,789,251.5,402,251.5" style="stroke: #A80036; stroke-width: 1.0;"/><polygon fill="#FBFB77" points="402,251.5,402,277.8516,596.5,277.8516,600.5,312.91,604.5,277.8516,799,277.8516,799,261.5,789,251.5,402,251.5" style="stroke: #A80036; stroke-width: 1.0;"/><line style="stroke: #A80036; stroke-width: 1.0;" x1="789" x2="789" y1="251.5" y2="261.5"/><line style="stroke: #A80036; stroke-width: 1.0;" x1="799" x2="789" y1="261.5" y2="261.5"/><text fill="#000000" font-family="sans-serif" font-size="13" lengthAdjust="spacingAndGlyphs" textLength="376" x="408" y="269.9951">com.github.adamyork.fx5p1d3r.application.view.control.command</text><!--entity A0D0D0--><rect fill="#FEFECE" filter="url(#fl0wzl5)" height="65.2188" style="stroke: #A80036; stroke-width: 1.5;" width="173" x="929.5" y="313"/><rect fill="#FEFECE" height="10" style="stroke: #A80036; stroke-width: 1.5;" width="15" x="1082.5" y="318"/><rect fill="#FEFECE" height="2" style="stroke: #A80036; stroke-width: 1.5;" width="4" x="1080.5" y="320"/><rect fill="#FEFECE" height="2" style="stroke: #A80036; stroke-width: 1.5;" width="4" x="1080.5" y="324"/><text fill="#000000" font-family="sans-serif" font-size="14" lengthAdjust="spacingAndGlyphs" textLength="133" x="944.5" y="347.5332">ApplicationCommand</text><text fill="#000000" font-family="sans-serif" font-size="14" lengthAdjust="spacingAndGlyphs" textLength="49" x="944.5" y="365.1426">execute</text><polygon fill="#FBFB77" filter="url(#fl0wzl5)" points="859,251.5,859,277.8516,1173,277.8516,1173,261.5,1163,251.5,859,251.5" style="stroke: #A80036; stroke-width: 1.0;"/><polygon fill="#FBFB77" points="859,251.5,859,277.8516,1012,277.8516,1016,312.91,1020,277.8516,1173,277.8516,1173,261.5,1163,251.5,859,251.5" style="stroke: #A80036; stroke-width: 1.0;"/><line style="stroke: #A80036; stroke-width: 1.0;" x1="1163" x2="1163" y1="251.5" y2="261.5"/><line style="stroke: #A80036; stroke-width: 1.0;" x1="1173" x2="1163" y1="261.5" y2="261.5"/><text fill="#000000" font-family="sans-serif" font-size="13" lengthAdjust="spacingAndGlyphs" textLength="293" x="865" y="269.9951">com.github.adamyork.fx5p1d3r.common.command</text><!--entity A0D0D0D0--><rect fill="#FEFECE" filter="url(#fl0wzl5)" height="65.2188" style="stroke: #A80036; stroke-width: 1.5;" width="177" x="1316.5" y="232"/><rect fill="#FEFECE" height="10" style="stroke: #A80036; stroke-width: 1.5;" width="15" x="1473.5" y="237"/><rect fill="#FEFECE" height="2" style="stroke: #A80036; stroke-width: 1.5;" width="4" x="1471.5" y="239"/><rect fill="#FEFECE" height="2" style="stroke: #A80036; stroke-width: 1.5;" width="4" x="1471.5" y="243"/><text fill="#000000" font-family="sans-serif" font-size="14" lengthAdjust="spacingAndGlyphs" textLength="137" x="1331.5" y="266.5332">UrlValidatorCommand</text><text fill="#000000" font-family="sans-serif" font-size="14" lengthAdjust="spacingAndGlyphs" textLength="49" x="1331.5" y="284.1426">execute</text><polygon fill="#FBFB77" filter="url(#fl0wzl5)" points="1233,170.5,1233,196.8516,1577,196.8516,1577,180.5,1567,170.5,1233,170.5" style="stroke: #A80036; stroke-width: 1.0;"/><polygon fill="#FBFB77" points="1233,170.5,1233,196.8516,1401,196.8516,1405,231.91,1409,196.8516,1577,196.8516,1577,180.5,1567,170.5,1233,170.5" style="stroke: #A80036; stroke-width: 1.0;"/><line style="stroke: #A80036; stroke-width: 1.0;" x1="1567" x2="1567" y1="170.5" y2="180.5"/><line style="stroke: #A80036; stroke-width: 1.0;" x1="1577" x2="1567" y1="180.5" y2="180.5"/><text fill="#000000" font-family="sans-serif" font-size="13" lengthAdjust="spacingAndGlyphs" textLength="323" x="1239" y="188.9951">com.github.adamyork.fx5p1d3r.application.command.url</text><!--entity A0D0D0D0D0--><rect fill="#FEFECE" filter="url(#fl0wzl5)" height="65.2188" style="stroke: #A80036; stroke-width: 1.5;" width="173" x="1722.5" y="232"/><rect fill="#FEFECE" height="10" style="stroke: #A80036; stroke-width: 1.5;" width="15" x="1875.5" y="237"/><rect fill="#FEFECE" height="2" style="stroke: #A80036; stroke-width: 1.5;" width="4" x="1873.5" y="239"/><rect fill="#FEFECE" height="2" style="stroke: #A80036; stroke-width: 1.5;" width="4" x="1873.5" y="243"/><text fill="#000000" font-family="sans-serif" font-size="14" lengthAdjust="spacingAndGlyphs" textLength="133" x="1737.5" y="266.5332">ApplicationCommand</text><text fill="#000000" font-family="sans-serif" font-size="14" lengthAdjust="spacingAndGlyphs" textLength="49" x="1737.5" y="284.1426">execute</text><polygon fill="#FBFB77" filter="url(#fl0wzl5)" points="1652,170.5,1652,196.8516,1966,196.8516,1966,180.5,1956,170.5,1652,170.5" style="stroke: #A80036; stroke-width: 1.0;"/><polygon fill="#FBFB77" points="1652,170.5,1652,196.8516,1805,196.8516,1809,231.91,1813,196.8516,1966,196.8516,1966,180.5,1956,170.5,1652,170.5" style="stroke: #A80036; stroke-width: 1.0;"/><line style="stroke: #A80036; stroke-width: 1.0;" x1="1956" x2="1956" y1="170.5" y2="180.5"/><line style="stroke: #A80036; stroke-width: 1.0;" x1="1966" x2="1956" y1="180.5" y2="180.5"/><text fill="#000000" font-family="sans-serif" font-size="13" lengthAdjust="spacingAndGlyphs" textLength="293" x="1658" y="188.9951">com.github.adamyork.fx5p1d3r.common.command</text><!--entity A0D0D0D0D0D0--><rect fill="#90EE90" filter="url(#fl0wzl5)" height="65.2188" style="stroke: #A80036; stroke-width: 1.5;" width="146" x="2132" y="70"/><rect fill="#90EE90" height="10" style="stroke: #A80036; stroke-width: 1.5;" width="15" x="2258" y="75"/><rect fill="#90EE90" height="2" style="stroke: #A80036; stroke-width: 1.5;" width="4" x="2256" y="77"/><rect fill="#90EE90" height="2" style="stroke: #A80036; stroke-width: 1.5;" width="4" x="2256" y="81"/><text fill="#000000" font-family="sans-serif" font-size="14" lengthAdjust="spacingAndGlyphs" textLength="106" x="2147" y="104.5332">ParserCommand</text><text fill="#000000" font-family="sans-serif" font-size="14" lengthAdjust="spacingAndGlyphs" textLength="49" x="2147" y="122.1426">execute</text><polygon fill="#FBFB77" filter="url(#fl0wzl5)" points="2041,8.5,2041,34.8516,2369,34.8516,2369,18.5,2359,8.5,2041,8.5" style="stroke: #A80036; stroke-width: 1.0;"/><polygon fill="#FBFB77" points="2041,8.5,2041,34.8516,2201,34.8516,2205,69.91,2209,34.8516,2369,34.8516,2369,18.5,2359,8.5,2041,8.5" style="stroke: #A80036; stroke-width: 1.0;"/><line style="stroke: #A80036; stroke-width: 1.0;" x1="2359" x2="2359" y1="8.5" y2="18.5"/><line style="stroke: #A80036; stroke-width: 1.0;" x1="2369" x2="2359" y1="18.5" y2="18.5"/><text fill="#000000" font-family="sans-serif" font-size="13" lengthAdjust="spacingAndGlyphs" textLength="307" x="2047" y="26.9951">com.github.adamyork.fx5p1d3r.common.command.io</text><!--entity A0D0D0D0D0D1--><rect fill="#90EE90" filter="url(#fl0wzl5)" height="65.2188" style="stroke: #A80036; stroke-width: 1.5;" width="146" x="2132" y="232"/><rect fill="#90EE90" height="10" style="stroke: #A80036; stroke-width: 1.5;" width="15" x="2258" y="237"/><rect fill="#90EE90" height="2" style="stroke: #A80036; stroke-width: 1.5;" width="4" x="2256" y="239"/><rect fill="#90EE90" height="2" style="stroke: #A80036; stroke-width: 1.5;" width="4" x="2256" y="243"/><text fill="#000000" font-family="sans-serif" font-size="14" lengthAdjust="spacingAndGlyphs" textLength="106" x="2147" y="266.5332">ParserCommand</text><text fill="#000000" font-family="sans-serif" font-size="14" lengthAdjust="spacingAndGlyphs" textLength="49" x="2147" y="284.1426">execute</text><polygon fill="#FBFB77" filter="url(#fl0wzl5)" points="2041,170.5,2041,196.8516,2369,196.8516,2369,180.5,2359,170.5,2041,170.5" style="stroke: #A80036; stroke-width: 1.0;"/><polygon fill="#FBFB77" points="2041,170.5,2041,196.8516,2201,196.8516,2205,231.91,2209,196.8516,2369,196.8516,2369,180.5,2359,170.5,2041,170.5" style="stroke: #A80036; stroke-width: 1.0;"/><line style="stroke: #A80036; stroke-width: 1.0;" x1="2359" x2="2359" y1="170.5" y2="180.5"/><line style="stroke: #A80036; stroke-width: 1.0;" x1="2369" x2="2359" y1="180.5" y2="180.5"/><text fill="#000000" font-family="sans-serif" font-size="13" lengthAdjust="spacingAndGlyphs" textLength="307" x="2047" y="188.9951">com.github.adamyork.fx5p1d3r.common.command.io</text><!--entity A0D0D0D1--><rect fill="#FEFECE" filter="url(#fl0wzl5)" height="65.2188" style="stroke: #A80036; stroke-width: 1.5;" width="133" x="1338.5" y="394"/><rect fill="#FEFECE" height="10" style="stroke: #A80036; stroke-width: 1.5;" width="15" x="1451.5" y="399"/><rect fill="#FEFECE" height="2" style="stroke: #A80036; stroke-width: 1.5;" width="4" x="1449.5" y="401"/><rect fill="#FEFECE" height="2" style="stroke: #A80036; stroke-width: 1.5;" width="4" x="1449.5" y="405"/><text fill="#000000" font-family="sans-serif" font-size="14" lengthAdjust="spacingAndGlyphs" textLength="93" x="1353.5" y="428.5332">AlertCommand</text><text fill="#000000" font-family="sans-serif" font-size="14" lengthAdjust="spacingAndGlyphs" textLength="49" x="1353.5" y="446.1426">execute</text><polygon fill="#FBFB77" filter="url(#fl0wzl5)" points="1233.5,332.5,1233.5,358.8516,1576.5,358.8516,1576.5,342.5,1566.5,332.5,1233.5,332.5" style="stroke: #A80036; stroke-width: 1.0;"/><polygon fill="#FBFB77" points="1233.5,332.5,1233.5,358.8516,1401,358.8516,1405,393.91,1409,358.8516,1576.5,358.8516,1576.5,342.5,1566.5,332.5,1233.5,332.5" style="stroke: #A80036; stroke-width: 1.0;"/><line style="stroke: #A80036; stroke-width: 1.0;" x1="1566.5" x2="1566.5" y1="332.5" y2="342.5"/><line style="stroke: #A80036; stroke-width: 1.0;" x1="1576.5" x2="1566.5" y1="342.5" y2="342.5"/><text fill="#000000" font-family="sans-serif" font-size="13" lengthAdjust="spacingAndGlyphs" textLength="322" x="1239.5" y="350.9951">com.github.adamyork.fx5p1d3r.common.command.alert</text><!--entity A0D0D0D1D0--><rect fill="#FEFECE" filter="url(#fl0wzl5)" height="65.2188" style="stroke: #A80036; stroke-width: 1.5;" width="177" x="1720.5" y="394"/><rect fill="#FEFECE" height="10" style="stroke: #A80036; stroke-width: 1.5;" width="15" x="1877.5" y="399"/><rect fill="#FEFECE" height="2" style="stroke: #A80036; stroke-width: 1.5;" width="4" x="1875.5" y="401"/><rect fill="#FEFECE" height="2" style="stroke: #A80036; stroke-width: 1.5;" width="4" x="1875.5" y="405"/><text fill="#000000" font-family="sans-serif" font-size="14" lengthAdjust="spacingAndGlyphs" textLength="137" x="1735.5" y="428.5332">UrlValidatorCommand</text><text fill="#000000" font-family="sans-serif" font-size="14" lengthAdjust="spacingAndGlyphs" textLength="49" x="1735.5" y="446.1426">execute</text><polygon fill="#FBFB77" filter="url(#fl0wzl5)" points="1637,332.5,1637,358.8516,1981,358.8516,1981,342.5,1971,332.5,1637,332.5" style="stroke: #A80036; stroke-width: 1.0;"/><polygon fill="#FBFB77" points="1637,332.5,1637,358.8516,1805,358.8516,1809,393.91,1813,358.8516,1981,358.8516,1981,342.5,1971,332.5,1637,332.5" style="stroke: #A80036; stroke-width: 1.0;"/><line style="stroke: #A80036; stroke-width: 1.0;" x1="1971" x2="1971" y1="332.5" y2="342.5"/><line style="stroke: #A80036; stroke-width: 1.0;" x1="1981" x2="1971" y1="342.5" y2="342.5"/><text fill="#000000" font-family="sans-serif" font-size="13" lengthAdjust="spacingAndGlyphs" textLength="323" x="1643" y="350.9951">com.github.adamyork.fx5p1d3r.application.command.url</text><!--entity A0D0D0D1D0D0--><rect fill="#FEFECE" filter="url(#fl0wzl5)" height="65.2188" style="stroke: #A80036; stroke-width: 1.5;" width="173" x="2118.5" y="394"/><rect fill="#FEFECE" height="10" style="stroke: #A80036; stroke-width: 1.5;" width="15" x="2271.5" y="399"/><rect fill="#FEFECE" height="2" style="stroke: #A80036; stroke-width: 1.5;" width="4" x="2269.5" y="401"/><rect fill="#FEFECE" height="2" style="stroke: #A80036; stroke-width: 1.5;" width="4" x="2269.5" y="405"/><text fill="#000000" font-family="sans-serif" font-size="14" lengthAdjust="spacingAndGlyphs" textLength="133" x="2133.5" y="428.5332">ApplicationCommand</text><text fill="#000000" font-family="sans-serif" font-size="14" lengthAdjust="spacingAndGlyphs" textLength="49" x="2133.5" y="446.1426">execute</text><polygon fill="#FBFB77" filter="url(#fl0wzl5)" points="2048,332.5,2048,358.8516,2362,358.8516,2362,342.5,2352,332.5,2048,332.5" style="stroke: #A80036; stroke-width: 1.0;"/><polygon fill="#FBFB77" points="2048,332.5,2048,358.8516,2201,358.8516,2205,393.91,2209,358.8516,2362,358.8516,2362,342.5,2352,332.5,2048,332.5" style="stroke: #A80036; stroke-width: 1.0;"/><line style="stroke: #A80036; stroke-width: 1.0;" x1="2352" x2="2352" y1="332.5" y2="342.5"/><line style="stroke: #A80036; stroke-width: 1.0;" x1="2362" x2="2352" y1="342.5" y2="342.5"/><text fill="#000000" font-family="sans-serif" font-size="13" lengthAdjust="spacingAndGlyphs" textLength="293" x="2054" y="350.9951">com.github.adamyork.fx5p1d3r.common.command</text><!--entity A0D0D0D1D0D0D0--><rect fill="#90EE90" filter="url(#fl0wzl5)" height="65.2188" style="stroke: #A80036; stroke-width: 1.5;" width="146" x="2520" y="313"/><rect fill="#90EE90" height="10" style="stroke: #A80036; stroke-width: 1.5;" width="15" x="2646" y="318"/><rect fill="#90EE90" height="2" style="stroke: #A80036; stroke-width: 1.5;" width="4" x="2644" y="320"/><rect fill="#90EE90" height="2" style="stroke: #A80036; stroke-width: 1.5;" width="4" x="2644" y="324"/><text fill="#000000" font-family="sans-serif" font-size="14" lengthAdjust="spacingAndGlyphs" textLength="106" x="2535" y="347.5332">ParserCommand</text><text fill="#000000" font-family="sans-serif" font-size="14" lengthAdjust="spacingAndGlyphs" textLength="49" x="2535" y="365.1426">execute</text><polygon fill="#FBFB77" filter="url(#fl0wzl5)" points="2429,251.5,2429,277.8516,2757,277.8516,2757,261.5,2747,251.5,2429,251.5" style="stroke: #A80036; stroke-width: 1.0;"/><polygon fill="#FBFB77" points="2429,251.5,2429,277.8516,2589,277.8516,2593,312.91,2597,277.8516,2757,277.8516,2757,261.5,2747,251.5,2429,251.5" style="stroke: #A80036; stroke-width: 1.0;"/><line style="stroke: #A80036; stroke-width: 1.0;" x1="2747" x2="2747" y1="251.5" y2="261.5"/><line style="stroke: #A80036; stroke-width: 1.0;" x1="2757" x2="2747" y1="261.5" y2="261.5"/><text fill="#000000" font-family="sans-serif" font-size="13" lengthAdjust="spacingAndGlyphs" textLength="307" x="2435" y="269.9951">com.github.adamyork.fx5p1d3r.common.command.io</text><!--entity A0D0D0D1D0D0D1--><rect fill="#90EE90" filter="url(#fl0wzl5)" height="65.2188" style="stroke: #A80036; stroke-width: 1.5;" width="146" x="2520" y="475"/><rect fill="#90EE90" height="10" style="stroke: #A80036; stroke-width: 1.5;" width="15" x="2646" y="480"/><rect fill="#90EE90" height="2" style="stroke: #A80036; stroke-width: 1.5;" width="4" x="2644" y="482"/><rect fill="#90EE90" height="2" style="stroke: #A80036; stroke-width: 1.5;" width="4" x="2644" y="486"/><text fill="#000000" font-family="sans-serif" font-size="14" lengthAdjust="spacingAndGlyphs" textLength="106" x="2535" y="509.5332">ParserCommand</text><text fill="#000000" font-family="sans-serif" font-size="14" lengthAdjust="spacingAndGlyphs" textLength="49" x="2535" y="527.1426">execute</text><polygon fill="#FBFB77" filter="url(#fl0wzl5)" points="2429,413.5,2429,439.8516,2757,439.8516,2757,423.5,2747,413.5,2429,413.5" style="stroke: #A80036; stroke-width: 1.0;"/><polygon fill="#FBFB77" points="2429,413.5,2429,439.8516,2589,439.8516,2593,474.9102,2597,439.8516,2757,439.8516,2757,423.5,2747,413.5,2429,413.5" style="stroke: #A80036; stroke-width: 1.0;"/><line style="stroke: #A80036; stroke-width: 1.0;" x1="2747" x2="2747" y1="413.5" y2="423.5"/><line style="stroke: #A80036; stroke-width: 1.0;" x1="2757" x2="2747" y1="423.5" y2="423.5"/><text fill="#000000" font-family="sans-serif" font-size="13" lengthAdjust="spacingAndGlyphs" textLength="307" x="2435" y="431.9951">com.github.adamyork.fx5p1d3r.common.command.io</text><path d="M248.458,345.5 C319.627,345.5 427.871,345.5 505.335,345.5 " fill="none" style="stroke: #A80036; stroke-width: 1.0;"/><polygon fill="#A80036" points="510.392,345.5,501.392,341.5,505.392,345.5,501.392,349.5,510.392,345.5" style="stroke: #A80036; stroke-width: 1.0;"/><path d="M690.714,345.5 C759.668,345.5 854.741,345.5 924.113,345.5 " fill="none" style="stroke: #A80036; stroke-width: 1.0;"/><polygon fill="#A80036" points="929.481,345.5,920.481,341.5,924.481,345.5,920.481,349.5,929.481,345.5" style="stroke: #A80036; stroke-width: 1.0;"/><path d="M1102.89,327.523 C1164.74,314.577 1248.1,297.129 1311.43,283.874 " fill="none" style="stroke: #A80036; stroke-width: 1.0;"/><polygon fill="#A80036" points="1316.34,282.847,1306.7097,280.7835,1311.4469,283.8753,1308.3551,288.6125,1316.34,282.847" style="stroke: #A80036; stroke-width: 1.0;"/><path d="M1493.72,264.5 C1559.81,264.5 1650.15,264.5 1717.01,264.5 " fill="none" style="stroke: #A80036; stroke-width: 1.0;"/><polygon fill="#A80036" points="1722.19,264.5,1713.19,260.5,1717.19,264.5,1713.19,268.5,1722.19,264.5" style="stroke: #A80036; stroke-width: 1.0;"/><path d="M1895.72,247.97 C1924.15,240.184 1955.12,229.075 1981,213.5 C2013.58,193.891 2008.49,172.235 2041,152.5 C2067.07,136.672 2098.56,125.485 2126.89,117.767 " fill="none" style="stroke: #A80036; stroke-width: 1.0;"/><polygon fill="#A80036" points="2131.77,116.462,2122.0439,114.9117,2126.9383,117.7482,2124.1018,122.6425,2131.77,116.462" style="stroke: #A80036; stroke-width: 1.0;"/><path d="M1895.98,264.5 C1964.72,264.5 2060.24,264.5 2126.61,264.5 " fill="none" style="stroke: #A80036; stroke-width: 1.0;"/><polygon fill="#A80036" points="2131.74,264.5,2122.74,260.5,2126.74,264.5,2122.74,268.5,2131.74,264.5" style="stroke: #A80036; stroke-width: 1.0;"/><path d="M1102.89,363.477 C1172.23,377.99 1268.6,398.161 1333.48,411.74 " fill="none" style="stroke: #A80036; stroke-width: 1.0;"/><polygon fill="#A80036" points="1338.48,412.787,1330.4951,407.0215,1333.5869,411.7587,1328.8497,414.8505,1338.48,412.787" style="stroke: #A80036; stroke-width: 1.0;"/><path d="M1471.93,426.5 C1538.06,426.5 1640.49,426.5 1714.89,426.5 " fill="none" style="stroke: #A80036; stroke-width: 1.0;"/><polygon fill="#A80036" points="1720.2,426.5,1711.2,422.5,1715.2,426.5,1711.2,430.5,1720.2,426.5" style="stroke: #A80036; stroke-width: 1.0;"/><path d="M1897.93,426.5 C1962.03,426.5 2048.63,426.5 2113.36,426.5 " fill="none" style="stroke: #A80036; stroke-width: 1.0;"/><polygon fill="#A80036" points="2118.37,426.5,2109.37,422.5,2113.37,426.5,2109.37,430.5,2118.37,426.5" style="stroke: #A80036; stroke-width: 1.0;"/><path d="M2291.67,408.523 C2358.45,394.51 2450.36,375.221 2514.87,361.686 " fill="none" style="stroke: #A80036; stroke-width: 1.0;"/><polygon fill="#A80036" points="2519.85,360.64,2510.2196,358.5771,2514.9569,361.6686,2511.8654,366.4059,2519.85,360.64" style="stroke: #A80036; stroke-width: 1.0;"/><path d="M2291.67,444.4765 C2358.45,458.49 2450.36,477.7786 2514.87,491.3143 " fill="none" style="stroke: #A80036; stroke-width: 1.0;"/><polygon fill="#A80036" points="2519.85,492.3603,2511.8653,486.5945,2514.9569,491.3318,2510.2197,494.4235,2519.85,492.3603" style="stroke: #A80036; stroke-width: 1.0;"/></g></svg>
